<?xml version="1.0" ?><!DOCTYPE svg  PUBLIC '-//W3C//DTD SVG 1.1//EN'  'http://www.w3.org/Graphics/SVG/1.1/DTD/svg11.dtd'><svg enable-background="new 0 0 512 512" height="512px" id="Layer_1" version="1.1" viewBox="0 0 512 512" width="512px" xml:space="preserve" xmlns="http://www.w3.org/2000/svg" xmlns:xlink="http://www.w3.org/1999/xlink"><g><path clip-rule="evenodd" d="M256.23,512C396.81,512,512,396.81,512,256.23   C512,115.184,396.81,0,256.23,0C115.184,0,0,115.184,0,256.23C0,396.81,115.184,512,256.23,512L256.23,512z" fill="#E1584B" fill-rule="evenodd"/><path clip-rule="evenodd" d="M274.369,280.26c-7.718-5.891-15.873-11.343-24.044-18.139   c-11.335-9.523-7.249-23.131,4.538-32.2c10.429-8.163,22.678-17.686,29.021-26.755c18.592-28.122,9.983-68.024-19.045-88.889h26.31   l28.56-18.139h-90.24c-65.306,0-114.737,24.942-110.652,85.709c2.719,41.723,40.816,64.399,87.976,59.408   c-9.976,15.881-3.172,31.754,8.616,44.44c-121.534,2.719-135.595,70.742-107.02,102.489c18.591,20.42,51.698,28.575,85.709,27.669   c40.355-0.453,82.538-14.515,101.583-41.73C312.006,350.549,322.88,316.99,274.369,280.26L274.369,280.26z M432.181,239.896   h-50.339v-48.073h-16.779v48.073h-52.15v16.334h52.15v47.604h16.779V256.23h50.339V239.896z M247.606,155.999   c11.343,29.028,9.077,63.04-21.771,72.563c-34.918,10.882-61.22-23.13-66.657-56.689c-4.086-24.49,1.813-48.526,25.396-56.689   C212.688,105.661,236.272,128.338,247.606,155.999L247.606,155.999z M136.501,339.659c6.352-33.105,46.706-41.714,93.873-41.714   c18.592,13.154,37.637,25.856,45.354,39.901c5.437,10.89,4.078,26.31-5.452,38.559c-11.78,14.498-31.739,19.951-50.784,21.311   c-35.371,1.813-64.853-12.249-77.546-28.122C135.142,360.532,134.236,350.096,136.501,339.659L136.501,339.659z" fill="#FFFFFF" fill-rule="evenodd"/></g></svg>